PathFileType	4	(X/Y/Z)	/tmp/tmp4hfz6umo/results/MarkerData/levelground_ccw_fast_01_01.trc
DataRate	CameraRate	NumFrames	NumMarkers	Units	OrigDataRate	OrigDataStartFrame	OrigNumFrames
200	200	13	28	m	200	2300	3067
Frame#	Time	L_ASIS			L_Ankle_Lat			L_Heel			L_Knee_Lat			L_PSIS			L_Shank_Front			L_Shank_Rear			L_Shank_Upper			L_Thigh_Front			L_Thigh_Rear			L_Thigh_Upper			L_Toe_Lat			L_Toe_Med			L_Toe_Tip			R_ASIS			R_Ankle_Lat			R_Heel			R_Knee_Lat			R_PSIS			R_Shank_Front			R_Shank_Rear			R_Shank_Upper			R_Thigh_Front			R_Thigh_Rear			R_Thigh_Upper			R_Toe_Lat			R_Toe_Med			R_Toe_Tip		
		X1	Y1	Z1	X2	Y2	Z2	X3	Y3	Z3	X4	Y4	Z4	X5	Y5	Z5	X6	Y6	Z6	X7	Y7	Z7	X8	Y8	Z8	X9	Y9	Z9	X10	Y10	Z10	X11	Y11	Z11	X12	Y12	Z12	X13	Y13	Z13	X14	Y14	Z14	X15	Y15	Z15	X16	Y16	Z16	X17	Y17	Z17	X18	Y18	Z18	X19	Y19	Z19	X20	Y20	Z20	X21	Y21	Z21	X22	Y22	Z22	X23	Y23	Z23	X24	Y24	Z24	X25	Y25	Z25	X26	Y26	Z26	X27	Y27	Z27	X28	Y28	Z28

2301	11.505	-2.07923	0.979958	-1.41404	-1.99597	0.133618	-1.87663	-2.03074	0.127743	-1.94864	-2.01891	0.48834	-1.63728	-2.14234	1.02805	-1.59409	-1.9894	0.335336	-1.75117	-1.98674	0.345695	-1.79743	-1.97699	0.399442	-1.74991	-2.01097	0.770274	-1.51561	-2.00986	0.797536	-1.58574	-2.0051	0.849527	-1.52764	-1.9628	0.022597	-1.81275	-2.06825	0.0145157	-1.76084	-2.04046	0.0373695	-1.7563	-2.34758	0.970616	-1.43866	-2.38845	0.0697099	-1.22689	-2.3341	0.0135491	-1.26012	-2.39153	0.501235	-1.33271	-2.26596	1.02101	-1.60386	-2.41484	0.302909	-1.29445	-2.39473	0.286603	-1.34974	-2.41663	0.350724	-1.34567	-2.40418	0.763958	-1.39389	-2.42033	0.726815	-1.45165	-2.41624	0.791949	-1.47352	-2.44071	0.0574225	-1.11977	-2.35162	0.0877038	-1.0547	-2.37825	0.109036	-1.07058
2302	11.51	-2.08136	0.977941	-1.40392	-1.99641	0.136331	-1.87362	-2.03137	0.132079	-1.94573	-2.02013	0.485666	-1.62628	-2.14431	1.02565	-1.584	-1.99046	0.334917	-1.74347	-1.98755	0.346383	-1.78937	-1.97803	0.398895	-1.74072	-2.01311	0.768063	-1.50531	-2.01209	0.795067	-1.57549	-2.00729	0.847264	-1.51747	-1.96315	0.0238551	-1.81246	-2.06837	0.0142846	-1.76091	-2.04081	0.0372274	-1.75594	-2.35004	0.969166	-1.4285	-2.38958	0.0666664	-1.2214	-2.33535	0.0131674	-1.25737	-2.39355	0.500028	-1.32154	-2.26811	1.01874	-1.59368	-2.41656	0.300669	-1.28565	-2.39645	0.285115	-1.34137	-2.41842	0.349165	-1.33622	-2.40688	0.763751	-1.38241	-2.42226	0.726203	-1.44001	-2.41821	0.791193	-1.46222	-2.44177	0.052425	-1.11492	-2.35287	0.082172	-1.0494	-2.37952	0.103784	-1.06492
2303	11.515	-2.08362	0.975946	-1.39369	-1.99687	0.139235	-1.87028	-2.0321	0.136725	-1.94235	-2.02129	0.48288	-1.61486	-2.14623	1.02329	-1.57389	-1.99143	0.334544	-1.73549	-1.9885	0.347048	-1.78103	-1.97896	0.39852	-1.7312	-2.01538	0.765863	-1.49477	-2.01429	0.792633	-1.56498	-2.00954	0.84495	-1.50709	-1.96354	0.025163	-1.81213	-2.06856	0.0141087	-1.76089	-2.04122	0.037044	-1.75552	-2.35259	0.96783	-1.41829	-2.39015	0.0641117	-1.21641	-2.33578	0.014018	-1.25557	-2.39576	0.498732	-1.31055	-2.27015	1.01675	-1.58378	-2.41793	0.29822	-1.27739	-2.39781	0.283475	-1.33337	-2.42008	0.347619	-1.32727	-2.40988	0.763489	-1.37089	-2.4241	0.725515	-1.42845	-2.42006	0.790243	-1.45106	-2.44228	0.0461856	-1.11126	-2.35392	0.0747708	-1.04462	-2.38061	0.0967166	-1.05956
2304	11.52	-2.08592	0.973962	-1.38331	-1.99752	0.142344	-1.86654	-2.033	0.141684	-1.93844	-2.02255	0.479976	-1.60306	-2.14847	1.02091	-1.56374	-1.99239	0.334256	-1.72715	-1.98929	0.347815	-1.77245	-1.97981	0.398171	-1.72138	-2.01773	0.763649	-1.48398	-2.0165	0.790227	-1.55419	-2.01194	0.842564	-1.49649	-1.96391	0.0267414	-1.81162	-2.06883	0.0139681	-1.76076	-2.04172	0.0368908	-1.75497	-2.35512	0.966627	-1.40814	-2.39007	0.0627376	-1.21217	-2.33495	0.0157262	-1.25406	-2.39825	0.49739	-1.29975	-2.27217	1.01494	-1.57398	-2.41854	0.296014	-1.26939	-2.39874	0.282369	-1.32561	-2.42138	0.346175	-1.31867	-2.41301	0.763006	-1.3596	-2.42584	0.724613	-1.41712	-2.42208	0.789222	-1.44004	-2.4422	0.0387394	-1.1088	-2.35488	0.0649828	-1.04008	-2.38169	0.0874409	-1.0539
2305	11.525	-2.08831	0.972033	-1.37282	-1.99832	0.145721	-1.86234	-2.03407	0.146986	-1.93391	-2.02394	0.477051	-1.59086	-2.15074	1.01879	-1.55367	-1.99342	0.33415	-1.71846	-1.98964	0.349135	-1.76353	-1.98078	0.397953	-1.71117	-2.0201	0.761283	-1.47293	-2.01884	0.78773	-1.54313	-2.01441	0.840182	-1.48564	-1.96434	0.0285491	-1.8109	-2.06908	0.0137641	-1.76063	-2.04233	0.03662	-1.75434	-2.35751	0.965544	-1.39819	-2.39005	0.0622141	-1.20883	-2.33391	0.0175292	-1.25269	-2.40123	0.496404	-1.28903	-2.27429	1.01327	-1.56411	-2.41841	0.294413	-1.26157	-2.3992	0.282148	-1.31789	-2.42233	0.34534	-1.31	-2.41625	0.762291	-1.3487	-2.42761	0.723754	-1.40603	-2.42434	0.788128	-1.42928	-2.44163	0.0315999	-1.10697	-2.35552	0.0554683	-1.03618	-2.38253	0.0782696	-1.04888
2306	11.53	-2.09081	0.970238	-1.36223	-1.99912	0.149365	-1.8575	-2.03519	0.152689	-1.92871	-2.02524	0.47427	-1.57816	-2.1526	1.01698	-1.54373	-1.99457	0.334285	-1.70943	-1.99037	0.35044	-1.75406	-1.98199	0.397847	-1.70055	-2.02266	0.758871	-1.4616	-2.02128	0.785093	-1.53185	-2.01688	0.837791	-1.47453	-1.96486	0.0304803	-1.80998	-2.0695	0.0135741	-1.7604	-2.04295	0.0363595	-1.75359	-2.35979	0.964562	-1.38847	-2.3905	0.0616866	-1.20646	-2.33346	0.019124	-1.25175	-2.40396	0.496	-1.27836	-2.27639	1.01198	-1.55453	-2.41866	0.29385	-1.25368	-2.39975	0.282857	-1.30986	-2.42313	0.345795	-1.30075	-2.4197	0.761579	-1.33817	-2.42952	0.722885	-1.39538	-2.42693	0.787154	-1.4188	-2.44122	0.0257795	-1.10537	-2.35576	0.048731	-1.03368	-2.38319	0.0714637	-1.04556
2307	11.535	-2.09339	0.968657	-1.35164	-1.99992	0.15336	-1.85204	-2.0366	0.158812	-1.92271	-2.02658	0.47156	-1.56495	-2.15434	1.01527	-1.53381	-1.99574	0.334648	-1.69989	-1.99173	0.351776	-1.7439	-1.98344	0.397898	-1.68953	-2.02546	0.756629	-1.44992	-2.02383	0.782347	-1.52033	-2.01941	0.835359	-1.46324	-1.96546	0.0327419	-1.8088	-2.0699	0.0133277	-1.76028	-2.04366	0.0361222	-1.75299	-2.36207	0.963773	-1.37895	-2.39129	0.0609844	-1.20469	-2.33414	0.0202706	-1.25087	-2.40646	0.496234	-1.26724	-2.27832	1.01134	-1.54525	-2.42024	0.294385	-1.24567	-2.40121	0.284717	-1.30186	-2.4239	0.347339	-1.2913	-2.42332	0.760978	-1.32801	-2.43183	0.72229	-1.38515	-2.42978	0.786728	-1.40854	-2.44151	0.0220459	-1.10401	-2.3556	0.04408	-1.03214	-2.38343	0.0666385	-1.04333
2308	11.54	-2.09601	0.967165	-1.34135	-2.00099	0.157655	-1.84588	-2.03844	0.165347	-1.91588	-2.02804	0.468902	-1.55107	-2.15619	1.01365	-1.52397	-1.99713	0.335108	-1.68977	-1.99352	0.35324	-1.73315	-1.98519	0.398102	-1.67796	-2.02846	0.75446	-1.43799	-2.02636	0.77959	-1.50855	-2.02208	0.832922	-1.45178	-1.96623	0.0351025	-1.8075	-2.07024	0.0128049	-1.76062	-2.04445	0.0358541	-1.75256	-2.36453	0.963319	-1.36958	-2.39232	0.0606103	-1.20281	-2.33537	0.0212153	-1.24992	-2.40926	0.497441	-1.25552	-2.28035	1.01143	-1.53637	-2.42258	0.295583	-1.23759	-2.4032	0.287189	-1.29401	-2.42512	0.349463	-1.2821	-2.42707	0.760777	-1.31814	-2.43452	0.722189	-1.37534	-2.43258	0.786766	-1.39862	-2.44248	0.0199875	-1.10277	-2.35522	0.0400468	-1.03083	-2.38323	0.0627221	-1.04128
2309	11.545	-2.09866	0.965888	-1.33123	-2.00239	0.162195	-1.83896	-2.04065	0.1723	-1.90807	-2.02957	0.466276	-1.53648	-2.15786	1.01222	-1.51413	-1.9987	0.335629	-1.67888	-1.9956	0.354943	-1.72178	-1.98716	0.398467	-1.6657	-2.03146	0.752313	-1.42575	-2.02893	0.776866	-1.49649	-2.02488	0.830556	-1.44018	-1.96712	0.0377617	-1.80611	-2.07065	0.0123397	-1.76094	-2.04543	0.0356694	-1.75209	-2.36723	0.963267	-1.36044	-2.39342	0.0608109	-1.20051	-2.33662	0.0221047	-1.24899	-2.41206	0.499542	-1.24367	-2.28226	1.01119	-1.52743	-2.42494	0.297009	-1.22958	-2.40433	0.289608	-1.28607	-2.42708	0.35166	-1.27324	-2.43087	0.761058	-1.30844	-2.43767	0.722649	-1.36588	-2.43509	0.786986	-1.38917	-2.44374	0.0187339	-1.10179	-2.35478	0.0363776	-1.02963	-2.38298	0.0591179	-1.03935
2310	11.55	-2.1014	0.964806	-1.32121	-2.00408	0.166844	-1.83119	-2.04323	0.179516	-1.89914	-2.03122	0.463613	-1.52123	-2.1591	1.01098	-1.50437	-2.00034	0.336249	-1.66709	-1.99801	0.356717	-1.70961	-1.98927	0.39896	-1.65268	-2.03457	0.750343	-1.41321	-2.03149	0.774141	-1.4842	-2.02775	0.828235	-1.4285	-1.96816	0.0408424	-1.80429	-2.07118	0.0123723	-1.76059	-2.04643	0.0356994	-1.75105	-2.37003	0.963451	-1.35145	-2.39413	0.0610972	-1.1984	-2.33776	0.022855	-1.24811	-2.41474	0.502115	-1.23185	-2.28376	1.01084	-1.51792	-2.42722	0.298415	-1.22198	-2.40523	0.291892	-1.27842	-2.42966	0.353741	-1.26485	-2.4347	0.761769	-1.29899	-2.44097	0.723505	-1.35654	-2.43774	0.787481	-1.37996	-2.44493	0.0179551	-1.10106	-2.35443	0.0330621	-1.02868	-2.38292	0.0555967	-1.03776
2311	11.555	-2.10419	0.963928	-1.31121	-2.00594	0.171523	-1.82252	-2.04611	0.18677	-1.8893	-2.03311	0.460932	-1.50544	-2.16013	1.00993	-1.49461	-2.00215	0.336901	-1.65441	-2.00084	0.358315	-1.69653	-1.99159	0.399371	-1.6389	-2.03773	0.748491	-1.40052	-2.03398	0.77141	-1.47172	-2.03066	0.826005	-1.41672	-1.96947	0.0443427	-1.80198	-2.07185	0.013133	-1.75927	-2.04732	0.0360736	-1.7491	-2.37289	0.963886	-1.34257	-2.39432	0.0610634	-1.1969	-2.33838	0.0235425	-1.24742	-2.41721	0.504293	-1.22048	-2.28479	1.01072	-1.50794	-2.4295	0.299438	-1.21469	-2.407	0.293956	-1.27126	-2.43256	0.355577	-1.2567	-2.43852	0.762874	-1.28953	-2.44382	0.724402	-1.34701	-2.44037	0.788072	-1.37078	-2.44584	0.0174086	-1.10054	-2.35406	0.0301311	-1.02796	-2.38276	0.0524194	-1.03651
2312	11.56	-2.10707	0.963201	-1.30129	-2.00791	0.176301	-1.8131	-2.04916	0.19411	-1.87867	-2.0353	0.458265	-1.48923	-2.16144	1.00885	-1.48489	-2.00435	0.337479	-1.64089	-2.00349	0.359806	-1.68258	-1.99406	0.399659	-1.62419	-2.04082	0.746762	-1.38771	-2.03641	0.768702	-1.45915	-2.03345	0.823972	-1.40488	-1.97088	0.0483968	-1.79911	-2.07255	0.0144014	-1.75756	-2.04811	0.0368634	-1.7465	-2.37575	0.964568	-1.33373	-2.39415	0.0609523	-1.19576	-2.33846	0.0241345	-1.2469	-2.4194	0.505665	-1.20998	-2.2856	1.01082	-1.49852	-2.43145	0.299923	-1.20771	-2.40978	0.295666	-1.26463	-2.43554	0.356937	-1.24878	-2.44242	0.764371	-1.27988	-2.44598	0.725363	-1.33725	-2.44273	0.788677	-1.36166	-2.44634	0.017105	-1.10007	-2.35363	0.0274753	-1.02753	-2.38237	0.0501078	-1.03563
2313	11.565	-2.10996	0.962716	-1.29126	-2.00993	0.181275	-1.80302	-2.05239	0.201678	-1.86716	-2.03771	0.4556	-1.47253	-2.16265	1.00788	-1.47518	-2.00708	0.338046	-1.62677	-2.00602	0.361153	-1.66787	-1.99709	0.399623	-1.60859	-2.04377	0.745077	-1.37482	-2.03877	0.766008	-1.44656	-2.03612	0.82205	-1.3931	-1.97237	0.0530541	-1.79574	-2.07333	0.0161962	-1.75557	-2.04883	0.037964	-1.74353	-2.37857	0.965355	-1.32485	-2.39379	0.060941	-1.19476	-2.33847	0.0245242	-1.24648	-2.42146	0.506159	-1.20044	-2.28637	1.01081	-1.48936	-2.43291	0.299846	-1.20109	-2.41341	0.296895	-1.25848	-2.43844	0.357584	-1.24124	-2.44636	0.765994	-1.27019	-2.44814	0.72661	-1.32744	-2.44496	0.789671	-1.35241	-2.44637	0.0171381	-1.09957	-2.35305	0.0251638	-1.02722	-2.38125	0.0487923	-1.03495
